<?xml version="1.0" encoding="iso-8859-1"?>
<!-- Generator: Adobe Illustrator 19.0.0, SVG Export Plug-In . SVG Version: 6.00 Build 0)  -->
<svg version="1.1" id="Capa_1" xmlns="http://www.w3.org/2000/svg" xmlns:xlink="http://www.w3.org/1999/xlink" x="0px" y="0px"
	 viewBox="0 0 415.998 415.998" style="enable-background:new 0 0 415.998 415.998;" xml:space="preserve">
<g>
	<g>
		<circle cx="208.239" cy="48" r="12"/>
	</g>
</g>
<g>
	<g>
		<path d="M367.998,96c0-17.674-14.326-32-31.999-32h-44.424c-5.926-6.584-13.538-11.621-22.284-14.137
			c-7.368-2.117-13.038-7.789-15.156-15.156C248.37,14.664,229.897,0,207.998,0c-21.898,0-40.37,14.664-46.134,34.707
			c-2.122,7.375-7.806,13.039-15.182,15.164c-8.736,2.518-16.341,7.55-22.262,14.129H79.999c-17.674,0-32,14.326-32,32v287.998
			c0,17.674,14.326,32,32,32c73.466,0,163.758,0,256,0c17.674,0,32-14.326,32-32C367.999,293.119,367.998,206.096,367.998,96z
			 M128,95.742c0.11-14.066,9.614-26.607,23.112-30.496c12.71-3.664,22.477-13.426,26.127-26.117
			C181.157,25.512,193.805,16,207.998,16c14.194,0,26.842,9.512,30.758,23.129c3.652,12.699,13.413,22.461,26.11,26.111
			c13.619,3.916,23.131,16.565,23.131,30.76v16H128V95.742z M335.999,399.998c-85.455,0-170.77,0-256,0c-8.823,0-16-7.178-16-16V96
			c0-8.824,7.177-16,16-16h34.742c-1.73,4.89-2.698,10.142-2.74,15.617V128h191.998V96c0-5.617-0.992-10.992-2.764-16h34.764
			c8.822,0,15.999,7.176,15.999,16c0,45.742-0.001,260.254,0.002,287.998C351.999,392.82,344.822,399.998,335.999,399.998z"/>
	</g>
</g>
<g>
	<g>
		<circle cx="135.999" cy="312" r="8"/>
	</g>
</g>
<g>
	<g>
		<circle cx="231.999" cy="312" r="8"/>
	</g>
</g>
<g>
	<g>
		<circle cx="279.999" cy="312" r="8"/>
	</g>
</g>
<g>
	<g>
		<circle cx="183.999" cy="312" r="8"/>
	</g>
</g>
<g>
	<g>
		<path d="M287.999,172c-11.046,0-20,8.953-20,20c0,2.565,0.58,4.977,1.459,7.229l-22.23,22.23
			c-2.254-0.879-4.664-1.459-7.229-1.459c-3.552,0-6.713,1.174-9.603,2.797l-35.274-26.453c0.33-1.442,0.877-2.805,0.877-4.344
			c0-11.047-8.954-20-20-20s-20,8.953-20,20c0,2.565,0.58,4.977,1.459,7.229l-22.23,22.23c-2.254-0.879-4.664-1.459-7.229-1.459
			c-11.046,0-20,8.953-20,20c0,11.047,8.954,20,20,20s20-8.953,20-20c0-2.565-0.58-4.977-1.459-7.229l22.23-22.23
			c2.254,0.879,4.664,1.459,7.229,1.459c3.552,0,6.713-1.174,9.603-2.797l35.274,26.453c-0.33,1.442-0.877,2.805-0.877,4.344
			c0,11.047,8.954,20,20,20s20-8.953,20-20c0-2.565-0.58-4.977-1.459-7.229l22.23-22.23c2.254,0.879,4.664,1.459,7.229,1.459
			c11.046,0,20-8.953,20-20C307.999,180.953,299.045,172,287.999,172z"/>
	</g>
</g>
<g>
</g>
<g>
</g>
<g>
</g>
<g>
</g>
<g>
</g>
<g>
</g>
<g>
</g>
<g>
</g>
<g>
</g>
<g>
</g>
<g>
</g>
<g>
</g>
<g>
</g>
<g>
</g>
<g>
</g>
</svg>
